<svg xmlns="http://www.w3.org/2000/svg" width="37.63" height="36.889" viewBox="0 0 37.63 36.889">
  <g id="_004-attach" data-name="004-attach" transform="translate(0 -5.044)">
    <g id="Group_1505" data-name="Group 1505" transform="translate(0 5.044)">
      <g id="Group_1504" data-name="Group 1504">
        <path id="Path_1156" data-name="Path 1156" d="M332.13,131.063a3.788,3.788,0,1,0,3.788,3.788A3.792,3.792,0,0,0,332.13,131.063Zm0,6.106a2.318,2.318,0,1,1,2.318-2.318A2.32,2.32,0,0,1,332.13,137.169Z" transform="translate(-304.21 -121.801)" fill="#fff"/>
        <path id="Path_1157" data-name="Path 1157" d="M362.413,445.46a.722.722,0,0,0-.068-.127.714.714,0,0,0-.2-.2.724.724,0,0,0-.127-.068.688.688,0,0,0-.137-.042.723.723,0,0,0-.287,0,.689.689,0,0,0-.137.042.726.726,0,0,0-.127.068.715.715,0,0,0-.2.2.726.726,0,0,0-.068.127.69.69,0,0,0-.042.137.706.706,0,0,0,0,.287.69.69,0,0,0,.042.137.726.726,0,0,0,.068.127.7.7,0,0,0,.091.112c.017.017.035.033.053.048a.683.683,0,0,0,.059.043.724.724,0,0,0,.127.068.689.689,0,0,0,.137.042.705.705,0,0,0,.287,0,.688.688,0,0,0,.137-.042.722.722,0,0,0,.127-.068.7.7,0,0,0,.059-.043q.028-.023.053-.048a.7.7,0,0,0,.091-.112.722.722,0,0,0,.068-.127.742.742,0,0,0,.043-.137.742.742,0,0,0,0-.287A.739.739,0,0,0,362.413,445.46Z" transform="translate(-334.468 -412.67)" fill="#fff"/>
        <path id="Path_1158" data-name="Path 1158" d="M205.033,49.73a.78.78,0,0,0-.068-.127.737.737,0,0,0-.091-.112.7.7,0,0,0-.112-.091.725.725,0,0,0-.127-.068.742.742,0,0,0-.137-.042.724.724,0,0,0-.287,0,.768.768,0,0,0-.138.042.746.746,0,0,0-.126.068.7.7,0,0,0-.112.091.789.789,0,0,0-.092.112.775.775,0,0,0-.067.127.688.688,0,0,0-.042.137.709.709,0,0,0,0,.287.689.689,0,0,0,.042.137.775.775,0,0,0,.067.127.79.79,0,0,0,.092.112.7.7,0,0,0,.112.091.746.746,0,0,0,.126.068.768.768,0,0,0,.138.042.706.706,0,0,0,.287,0,.742.742,0,0,0,.137-.042.726.726,0,0,0,.127-.068.7.7,0,0,0,.112-.091.738.738,0,0,0,.091-.112.78.78,0,0,0,.068-.127.693.693,0,0,0,.042-.137.71.71,0,0,0,0-.287A.692.692,0,0,0,205.033,49.73Z" transform="translate(-188.655 -46.025)" fill="#fff"/>
        <path id="Path_1159" data-name="Path 1159" d="M33.524,8.3a4.233,4.233,0,0,0-4.113-3.254H6.351A6.358,6.358,0,0,0,0,11.4v23.06a4.231,4.231,0,0,0,4.106,4.224,4.233,4.233,0,0,0,4.113,3.254H33.4a4.232,4.232,0,0,0,4.227-4.227V12.522A4.231,4.231,0,0,0,33.524,8.3ZM36.16,37.706A2.76,2.76,0,0,1,33.4,40.463H8.219a2.758,2.758,0,0,1-2.757-2.757v-3.9l8.432-14.3a1.385,1.385,0,0,1,2.41.041l3.63,6.666,5.277,9.69a.735.735,0,0,0,1.291-.7L24.79,32.06a3.032,3.032,0,0,0,2.08-.7l3.305-2.742a1.391,1.391,0,0,1,1.82.045l.173.158,1.47,1.347,2.522,2.312Zm0-7.217-2.522-2.312-1.47-1.119a2.868,2.868,0,0,0-2.931.431l-3.305,2.742a1.574,1.574,0,0,1-2.388-.459l-2.319-4.258L19.93,23.137h0l-2.335-4.289a2.855,2.855,0,0,0-4.967-.085L5.462,30.914V12.522A2.76,2.76,0,0,1,8.219,9.765H12.76a.735.735,0,1,0,0-1.47H8.219a4.232,4.232,0,0,0-4.227,4.227V37.2A2.76,2.76,0,0,1,1.47,34.455V11.4A4.887,4.887,0,0,1,6.351,6.514h23.06a2.761,2.761,0,0,1,2.578,1.781H18.64a.735.735,0,1,0,0,1.47H32.168l1.47.011a2.76,2.76,0,0,1,2.522,2.746Z" transform="translate(0 -5.044)" fill="#fff"/>
      </g>
    </g>
  </g>
</svg>
