<svg xmlns="http://www.w3.org/2000/svg" width="36.877" height="36.877" viewBox="0 0 36.877 36.877">
  <path id="Path_1160" data-name="Path 1160" d="M36.877,34.176V6.983a2.737,2.737,0,0,0-2.7-2.7H26.531a4.792,4.792,0,0,0-9.53,0H2.7A2.73,2.73,0,0,0,0,6.983V34.176a2.7,2.7,0,0,0,2.7,2.7H34.176A2.843,2.843,0,0,0,36.877,34.176ZM25.446,23.449,35.8,12.762V33.8ZM21.766,1.08a3.709,3.709,0,0,1,3.711,3.7,13,13,0,0,1-1.5,5.332c-.956,1.888-1.865,2.737-2.206,2.737s-1.22-.771-2.233-2.838A13.459,13.459,0,0,1,18.055,4.78a3.709,3.709,0,0,1,3.711-3.7ZM1.08,6.983a1.611,1.611,0,0,1,.162-.705l5.881,5.881L1.08,18.2Zm0,27.193V25.3l9.592-9.592L30.761,35.8H2.7A1.622,1.622,0,0,1,1.08,34.176Zm33.1,1.621H32.29L11.054,14.562a.54.54,0,0,0-.764,0l-9.21,9.21V19.73l7.189-7.189a.54.54,0,0,0,0-.764L2.01,5.518A1.61,1.61,0,0,1,2.7,5.362h3.13l15.6,15.6a.54.54,0,0,0,.768,0l6.831-6.967a.54.54,0,0,0-.771-.756l-6.449,6.577L7.359,5.362H17a15.79,15.79,0,0,0,1.562,5.124c1.469,3,2.637,3.443,3.2,3.443,1.339,0,2.663-2.328,3.169-3.329a14.774,14.774,0,0,0,1.6-5.238h7.644a1.617,1.617,0,0,1,1.237.575L30.4,11.049a.54.54,0,0,0,.771.756L35.8,7.089v4.12L24.3,23.08a.54.54,0,0,0,.006.758L35.532,35.063a1.62,1.62,0,0,1-1.356.734Z" transform="translate(0 0)" fill="#fff"/>
</svg>
