<svg xmlns="http://www.w3.org/2000/svg" width="35.217" height="36.877" viewBox="0 0 35.217 36.877">
  <g id="_002-report" data-name="002-report" transform="translate(0 0)">
    <path id="Path_1144" data-name="Path 1144" d="M0,33.609a3.375,3.375,0,0,0,3.451,3.268H23.712a3.388,3.388,0,0,0,3.377-2.72,3.325,3.325,0,0,0,2.873-3.227V16.208H31.61a.589.589,0,0,0,.324-.09l3.012-1.957a.593.593,0,0,0,0-.995l-3.012-1.976a.612.612,0,0,0-.324-.113H29.963V7.833a.736.736,0,0,0-.264-.512L22.842.336A.6.6,0,0,0,22.7.193L22.683.176A.593.593,0,0,0,22.259,0H6.275a3.4,3.4,0,0,0-3.39,2.72A3.336,3.336,0,0,0,0,5.947ZM10.112,15.019V12.268H31v2.751Zm22.082-.489V12.8l1.327.863ZM22.974,2.142l4.932,5.069H23.769a.777.777,0,0,1-.795-.762Zm-16.7-.953H21.784V6.45A1.968,1.968,0,0,0,23.769,8.4h5v2.677H9.546a.65.65,0,0,0-.624.628v.076l-1.77-.035H7.147a.611.611,0,0,0-.595.613l.019,2.589a.6.6,0,0,0,.595.59H8.922v.087a.61.61,0,0,0,.624.582H10.8l-.008.892a1.309,1.309,0,0,0,.355.917,1.1,1.1,0,0,0,.771.347h7.222a.595.595,0,1,0,0-1.19H11.987c0-.074,0-.037,0-.046l.008-.92h16.78V30.93a2.165,2.165,0,0,1-2.237,2.081H6.275a2.186,2.186,0,0,1-2.26-2.081V3.362c0-.03.019-.061.019-.092a.567.567,0,0,0,0-.077A2.177,2.177,0,0,1,6.275,1.189Zm2.647,13.16H7.756l-.025-1.391,1.191.014ZM1.19,5.947a2.173,2.173,0,0,1,1.636-2V30.93A3.375,3.375,0,0,0,6.275,34.2H25.856a2.182,2.182,0,0,1-2.144,1.487H3.451A2.186,2.186,0,0,1,1.19,33.609Zm0,0" transform="translate(0 0)" fill="#fff"/>
    <path id="Path_1145" data-name="Path 1145" d="M89.056,269.19h9.779a.595.595,0,1,0,0-1.19H89.056a.595.595,0,1,0,0,1.19Zm0,0" transform="translate(-81.884 -248.074)" fill="#fff"/>
    <path id="Path_1146" data-name="Path 1146" d="M89.056,308.19h17.019a.595.595,0,1,0,0-1.19H89.056a.595.595,0,1,0,0,1.19Zm0,0" transform="translate(-81.884 -284.175)" fill="#fff"/>
    <path id="Path_1147" data-name="Path 1147" d="M89.056,347.19h17.019a.595.595,0,1,0,0-1.19H89.056a.595.595,0,1,0,0,1.19Zm0,0" transform="translate(-81.884 -320.275)" fill="#fff"/>
    <path id="Path_1148" data-name="Path 1148" d="M89.056,386.19h17.019a.595.595,0,1,0,0-1.19H89.056a.595.595,0,0,0,0,1.19Zm0,0" transform="translate(-81.884 -356.375)" fill="#fff"/>
  </g>
</svg>
