<svg xmlns="http://www.w3.org/2000/svg" width="40" height="30" viewBox="0 0 40 30">
  <g id="_102571" data-name="102571" transform="translate(40 55.905) rotate(180)" opacity="0.1">
    <path id="Path_1" data-name="Path 1" d="M0,39.654H9.7c-.166,7.182-2.171,8-4.69,8.231l-.971.122v7.9l1.12-.061c3.289-.188,6.925-.79,9.352-3.833,2.127-2.667,3.064-7.024,3.064-13.713V25.9H0Z" transform="translate(0 0)"/>
    <path id="Path_2" data-name="Path 2" d="M111,25.9V39.654h9.572c-.166,7.182-2.106,8-4.625,8.231l-.907.122v7.9l1.055-.061c3.289-.188,6.958-.79,9.384-3.833,2.126-2.667,3.1-7.024,3.1-13.713V25.9Z" transform="translate(-88.576 0)"/>
  </g>
</svg>
