<svg id="svg" version="1.1" xmlns="http://www.w3.org/2000/svg" xmlns:xlink="http://www.w3.org/1999/xlink" width="400" height="400" viewBox="0, 0, 400,400"><g id="svgg"><path id="path0" d="M248.658 83.075 C 248.516 83.217,248.400 83.933,248.400 84.667 C 248.400 85.884,248.295 86.000,247.190 86.000 C 245.862 86.000,245.099 87.234,245.221 89.183 C 245.404 92.104,245.279 92.400,243.857 92.400 L 242.515 92.400 242.248 95.277 C 241.937 98.619,242.037 98.441,240.441 98.486 C 239.278 98.520,239.200 98.617,239.200 100.037 C 239.200 101.499,239.147 101.556,237.700 101.676 L 236.200 101.800 236.083 104.900 L 235.966 108.000 234.444 108.000 C 233.011 108.000,232.920 108.074,232.886 109.261 C 232.847 110.634,232.286 111.184,230.918 111.194 C 230.053 111.200,229.391 112.847,229.615 114.435 C 229.906 116.495,229.602 117.200,228.424 117.200 C 226.923 117.200,226.836 117.367,226.628 120.661 L 226.454 123.400 225.027 123.524 C 223.658 123.643,223.600 123.711,223.600 125.200 C 223.600 126.704,223.554 126.755,222.100 126.876 L 220.600 127.000 220.400 129.981 L 220.200 132.962 218.800 132.981 L 217.400 133.000 217.283 136.100 L 217.166 139.200 215.583 139.200 C 214.003 139.200,214.000 139.203,214.000 140.800 C 214.000 142.352,213.959 142.400,212.646 142.400 C 211.332 142.400,210.116 145.770,210.946 147.112 C 211.357 147.778,210.438 148.523,209.247 148.489 C 208.571 148.470,208.035 148.577,208.056 148.727 C 208.077 148.877,208.073 150.305,208.047 151.900 L 208.000 154.800 206.400 154.800 C 204.804 154.800,204.800 154.804,204.800 156.376 C 204.800 157.908,204.758 157.955,203.300 158.076 L 201.800 158.200 201.682 161.100 C 201.585 163.501,201.447 164.007,200.882 164.043 C 198.397 164.197,198.562 164.045,198.446 166.300 C 198.409 167.025,198.164 167.200,197.190 167.200 C 195.823 167.200,195.104 168.434,195.217 170.587 C 195.361 173.330,195.271 173.543,193.900 173.675 C 192.603 173.800,192.599 173.806,192.329 176.537 C 192.020 179.667,191.998 179.705,190.507 179.760 C 189.525 179.795,189.386 179.970,189.276 181.300 C 189.170 182.574,189.010 182.800,188.209 182.800 C 186.190 182.800,186.000 183.095,186.000 186.219 L 186.000 189.152 184.500 189.276 L 183.000 189.400 182.897 192.170 C 182.777 195.377,182.816 195.308,181.107 195.360 C 179.776 195.401,179.783 195.391,179.643 197.700 C 179.616 198.145,179.272 198.402,178.700 198.406 C 177.190 198.416,176.907 198.888,176.607 201.900 L 176.319 204.800 174.959 204.800 L 173.600 204.800 173.600 207.946 L 173.600 211.091 172.100 211.046 C 170.646 211.001,170.596 211.046,170.476 212.500 C 170.377 213.693,170.188 214.000,169.550 214.000 C 167.632 214.000,167.200 214.660,167.200 217.590 L 167.200 220.352 165.700 220.476 C 164.167 220.603,164.184 220.578,164.043 222.900 C 164.011 223.421,163.652 223.600,162.639 223.600 C 161.290 223.600,160.324 226.430,160.871 228.780 C 160.953 229.133,160.456 229.470,159.500 229.707 L 158.000 230.079 158.000 233.040 L 158.000 236.000 156.400 236.000 L 154.800 236.000 154.800 240.600 L 154.800 245.200 192.200 245.200 L 229.600 245.200 229.600 243.624 C 229.600 242.092,229.642 242.045,231.100 241.924 L 232.600 241.800 232.717 238.923 L 232.834 236.046 234.317 235.923 C 235.716 235.807,235.807 235.715,235.924 234.300 C 236.037 232.939,236.156 232.800,237.210 232.800 C 238.730 232.800,239.200 231.867,239.200 228.852 L 239.200 226.451 240.500 226.325 L 241.800 226.200 241.917 223.323 L 242.034 220.446 243.517 220.323 C 244.916 220.207,245.007 220.115,245.124 218.700 C 245.230 217.426,245.390 217.200,246.191 217.200 C 248.212 217.200,248.400 216.907,248.400 213.757 L 248.400 210.800 250.000 210.800 L 251.600 210.800 251.600 207.824 L 251.600 204.848 253.100 204.724 C 254.519 204.607,254.607 204.519,254.724 203.100 C 254.826 201.863,255.002 201.599,255.724 201.594 C 257.395 201.582,257.763 200.986,257.931 198.023 L 258.090 195.200 259.445 195.200 C 260.756 195.200,260.800 195.148,260.800 193.624 C 260.800 192.092,260.842 192.045,262.300 191.924 L 263.800 191.800 263.918 188.900 C 264.023 186.295,264.117 186.000,264.844 186.000 C 266.769 186.000,267.200 185.343,267.200 182.410 L 267.200 179.648 268.700 179.524 C 270.119 179.407,270.207 179.319,270.324 177.900 C 270.441 176.493,270.530 176.400,271.777 176.400 C 273.320 176.400,273.586 175.829,273.595 172.500 C 273.599 170.698,273.709 170.400,274.367 170.400 C 276.194 170.400,276.400 170.052,276.400 166.957 L 276.400 164.000 278.000 164.000 C 279.596 164.000,279.600 163.996,279.600 162.424 C 279.600 160.892,279.642 160.845,281.100 160.724 L 282.600 160.600 282.718 157.700 L 282.835 154.800 284.230 154.800 C 285.979 154.800,285.906 155.091,286.175 147.086 C 286.420 139.813,286.797 138.218,288.545 137.073 C 289.214 136.634,289.600 136.020,289.600 135.392 C 289.600 134.829,290.185 133.755,290.958 132.899 C 291.705 132.072,292.528 130.611,292.786 129.653 C 293.151 128.298,293.516 127.811,294.428 127.467 C 295.257 127.154,295.600 126.755,295.600 126.103 C 295.600 125.586,296.294 124.429,297.184 123.464 C 298.295 122.258,298.848 121.239,299.039 120.044 C 299.207 118.996,299.815 117.739,300.624 116.771 C 301.346 115.907,302.059 114.644,302.208 113.963 C 302.389 113.141,302.936 112.457,303.840 111.923 C 304.795 111.360,305.200 110.831,305.200 110.147 C 305.200 109.564,305.773 108.601,306.628 107.745 C 307.609 106.764,308.142 105.798,308.331 104.659 C 308.553 103.319,308.847 102.885,309.865 102.400 C 310.978 101.870,311.157 101.551,311.396 99.667 C 311.669 97.510,312.651 96.000,313.782 96.000 C 314.133 96.000,314.470 95.432,314.632 94.570 C 314.780 93.783,315.373 92.701,315.950 92.166 C 316.527 91.631,317.270 90.339,317.600 89.296 C 318.064 87.830,318.493 87.264,319.491 86.800 C 320.648 86.263,320.784 86.022,320.791 84.496 L 320.800 82.792 284.858 82.804 C 265.090 82.811,248.800 82.933,248.658 83.075 M222.184 122.427 C 222.039 122.661,222.016 122.949,222.133 123.067 C 222.420 123.353,223.200 122.848,223.200 122.376 C 223.200 121.865,222.509 121.899,222.184 122.427 M188.071 178.382 C 188.142 178.702,187.990 178.972,187.733 178.982 C 187.049 179.008,186.565 179.601,187.233 179.594 C 188.371 179.582,189.045 178.884,188.468 178.317 C 188.038 177.894,187.966 177.906,188.071 178.382 M138.485 259.613 C 137.880 260.581,137.877 260.800,138.467 260.800 C 138.723 260.800,138.815 260.682,138.670 260.537 C 138.525 260.392,138.611 260.028,138.860 259.727 C 139.110 259.427,139.237 259.103,139.142 259.009 C 139.047 258.914,138.752 259.186,138.485 259.613 M118.608 291.424 C 117.838 292.006,117.843 292.019,118.787 291.875 C 119.321 291.793,119.827 291.518,119.912 291.263 C 120.122 290.633,119.564 290.702,118.608 291.424 M112.624 301.013 C 112.188 301.342,112.069 301.600,112.352 301.600 C 112.630 301.600,113.127 301.330,113.457 301.000 C 114.224 300.233,113.642 300.242,112.624 301.013 " stroke="none" fill="#0c543c" fill-rule="evenodd"></path><path id="path1" d="M323.200 84.413 C 323.200 86.348,322.305 88.633,321.011 90.000 C 320.490 90.550,319.620 92.012,319.077 93.249 C 318.534 94.486,317.886 95.623,317.637 95.777 C 317.388 95.931,316.731 96.952,316.176 98.047 C 315.621 99.142,314.914 100.135,314.604 100.254 C 314.295 100.373,313.753 101.337,313.401 102.398 C 313.048 103.458,312.291 104.833,311.717 105.452 C 310.711 106.537,310.084 107.581,307.067 113.200 C 306.299 114.630,305.311 116.016,304.871 116.281 C 304.432 116.545,303.951 117.311,303.804 117.981 C 303.657 118.652,302.934 119.921,302.199 120.801 C 301.463 121.682,300.658 123.017,300.410 123.768 C 300.162 124.520,299.533 125.414,299.012 125.756 C 298.414 126.147,297.833 127.169,297.441 128.518 C 297.099 129.696,296.435 131.006,295.967 131.430 C 295.498 131.853,294.754 132.920,294.313 133.800 C 293.873 134.680,293.104 135.850,292.604 136.400 C 292.105 136.950,291.479 138.082,291.212 138.914 C 290.946 139.747,290.218 140.807,289.593 141.268 C 288.583 142.015,288.427 142.435,288.179 145.083 C 287.932 147.721,287.793 148.098,286.950 148.419 C 285.349 149.028,286.013 150.943,287.961 151.332 C 288.989 151.538,289.167 151.769,289.275 153.043 C 289.385 154.333,289.541 154.530,290.544 154.635 C 292.111 154.799,292.173 154.908,292.400 157.901 C 292.595 160.469,292.630 160.540,293.793 160.694 C 295.260 160.889,295.085 160.622,295.357 163.080 C 295.723 166.396,296.189 167.372,296.883 166.279 C 297.089 165.955,297.190 166.026,297.194 166.500 C 297.197 166.885,297.470 167.200,297.800 167.200 C 298.160 167.200,298.420 167.600,298.450 168.200 C 298.478 168.750,298.522 169.425,298.550 169.700 C 298.611 170.311,374.800 170.651,374.800 170.039 C 374.800 169.839,375.146 169.765,375.570 169.876 C 376.279 170.062,376.336 169.854,376.296 167.261 C 376.272 165.712,376.118 164.527,375.954 164.629 C 375.790 164.730,375.542 164.630,375.404 164.407 C 375.266 164.183,374.803 164.000,374.376 164.000 C 373.756 164.000,373.600 163.719,373.600 162.600 C 373.600 161.800,373.400 161.200,373.133 161.200 C 372.877 161.200,372.785 161.082,372.930 160.937 C 373.075 160.792,372.970 160.397,372.697 160.060 C 372.300 159.571,372.301 159.507,372.700 159.747 C 373.452 160.198,373.301 159.571,372.500 158.914 C 372.115 158.599,372.053 158.472,372.362 158.632 C 372.746 158.832,372.827 158.768,372.618 158.429 C 372.437 158.136,371.923 158.033,371.356 158.175 C 370.492 158.392,370.400 158.288,370.400 157.088 C 370.400 155.466,369.795 154.800,368.320 154.800 C 367.219 154.800,367.199 154.757,367.139 152.300 C 367.106 150.925,367.061 149.530,367.039 149.200 C 367.013 148.805,366.489 148.558,365.500 148.476 C 364.087 148.359,364.000 148.273,364.000 146.999 C 364.000 146.256,363.820 145.536,363.600 145.400 C 363.380 145.264,363.203 144.938,363.206 144.676 C 363.210 144.390,363.367 144.439,363.600 144.800 C 363.931 145.313,363.989 145.298,363.994 144.700 C 363.997 144.315,363.741 144.000,363.424 144.000 C 363.107 144.000,362.737 143.822,362.603 143.605 C 362.462 143.377,362.624 143.311,362.984 143.449 C 363.416 143.615,363.541 143.511,363.387 143.111 C 363.142 142.471,362.000 142.310,362.000 142.916 C 362.000 143.126,361.730 143.074,361.400 142.800 C 361.055 142.514,360.800 141.642,360.800 140.751 C 360.800 139.245,360.759 139.200,359.400 139.200 L 358.000 139.200 357.953 136.900 C 357.927 135.635,357.930 134.455,357.960 134.279 C 358.064 133.661,356.849 132.800,355.874 132.800 C 355.008 132.800,354.857 132.574,354.606 130.900 C 354.450 129.855,354.114 128.868,353.861 128.706 C 353.543 128.503,353.579 128.410,353.976 128.406 C 354.392 128.402,354.336 128.232,353.776 127.799 C 353.024 127.216,353.023 127.206,353.766 127.467 C 354.296 127.653,354.442 127.592,354.241 127.267 C 354.077 127.002,353.545 126.899,353.019 127.031 C 351.904 127.311,351.665 126.995,351.535 125.066 C 351.440 123.653,351.382 123.600,349.918 123.600 L 348.400 123.600 348.400 120.576 C 348.400 118.663,348.253 117.644,348.000 117.800 C 347.780 117.936,347.600 117.857,347.600 117.624 C 347.600 117.391,347.060 117.200,346.400 117.200 C 345.252 117.200,345.198 117.122,345.150 115.400 C 345.089 113.211,345.077 113.141,344.632 112.438 C 344.373 112.029,344.419 111.964,344.800 112.200 C 345.144 112.413,345.227 112.367,345.042 112.068 C 344.887 111.818,344.184 111.464,343.480 111.283 C 342.347 110.992,342.185 110.773,342.070 109.382 C 341.999 108.517,341.778 107.615,341.580 107.376 C 341.361 107.112,341.391 106.769,341.655 106.505 C 342.224 105.936,341.686 105.081,340.939 105.368 C 340.615 105.493,340.466 105.416,340.603 105.195 C 340.737 104.978,340.477 104.800,340.024 104.800 C 339.523 104.800,339.182 104.525,339.154 104.100 C 339.128 103.715,339.066 103.220,339.015 103.000 C 338.964 102.780,338.894 102.387,338.861 102.127 C 338.827 101.866,338.257 101.669,337.594 101.688 C 336.036 101.732,336.052 101.758,335.808 98.975 C 335.693 97.669,335.569 96.391,335.533 96.136 C 335.496 95.880,335.137 95.735,334.733 95.813 C 334.330 95.891,334.000 95.784,334.000 95.577 C 334.000 95.370,333.730 95.200,333.400 95.200 C 332.988 95.200,332.800 94.787,332.800 93.880 C 332.800 93.154,332.575 92.318,332.300 92.021 C 331.900 91.590,331.900 91.539,332.300 91.765 C 332.878 92.092,332.992 91.366,332.417 91.011 C 332.207 90.881,332.137 90.508,332.262 90.183 C 332.429 89.747,332.302 89.663,331.779 89.863 C 331.256 90.064,331.155 89.997,331.394 89.610 C 331.641 89.211,331.464 89.133,330.659 89.287 C 329.643 89.481,329.600 89.417,329.600 87.727 C 329.600 86.549,329.434 85.986,329.100 86.030 C 326.872 86.319,326.400 86.034,326.400 84.400 L 326.400 82.800 324.800 82.800 L 323.200 82.800 323.200 84.413 " stroke="none" fill="#d1d2d2" fill-rule="evenodd"></path><path id="path2" d="M164.800 83.200 C 164.470 83.413,164.371 83.591,164.580 83.594 C 164.789 83.597,164.744 83.816,164.480 84.080 C 164.216 84.344,164.000 85.604,164.000 86.880 C 164.000 88.805,163.881 89.208,163.300 89.246 C 161.627 89.356,161.400 89.421,161.367 89.800 C 160.952 94.514,160.728 95.154,159.451 95.278 C 158.320 95.388,158.188 95.544,158.076 96.900 C 157.969 98.190,157.815 98.400,156.976 98.400 C 156.439 98.400,156.000 98.580,156.000 98.800 C 156.000 99.020,155.775 99.155,155.500 99.100 C 154.949 98.990,154.913 99.176,154.846 102.476 L 154.800 104.752 153.300 104.876 L 151.800 105.000 151.682 107.900 C 151.571 110.653,151.517 110.800,150.615 110.800 C 148.896 110.800,148.400 111.213,148.400 112.643 C 148.400 113.720,148.240 114.000,147.624 114.000 C 147.197 114.000,146.734 114.183,146.596 114.407 C 146.458 114.630,146.207 114.728,146.039 114.624 C 145.871 114.520,145.712 114.652,145.686 114.918 C 145.660 115.183,145.515 116.525,145.364 117.900 L 145.089 120.400 143.744 120.400 C 142.443 120.400,142.400 120.451,142.400 122.000 C 142.400 123.450,142.304 123.600,141.376 123.600 C 140.804 123.600,140.460 123.774,140.597 123.995 C 140.736 124.220,140.580 124.291,140.238 124.159 C 139.667 123.940,139.031 125.233,139.223 126.226 C 139.714 128.774,138.919 129.969,136.600 130.169 C 136.186 130.205,136.158 130.396,136.059 133.900 C 136.005 135.838,135.925 136.000,135.033 136.000 C 133.296 136.000,132.800 136.409,132.800 137.843 C 132.800 138.851,132.620 139.212,132.100 139.246 C 130.039 139.382,130.123 139.246,129.658 143.196 C 129.450 144.965,129.245 145.421,128.600 145.539 C 127.206 145.795,126.865 146.384,126.583 149.025 C 126.300 151.667,126.097 151.873,123.980 151.674 C 123.859 151.663,123.716 152.310,123.662 153.112 C 123.546 154.837,123.554 154.825,122.345 154.907 C 121.371 154.973,120.344 155.712,120.440 156.279 C 120.470 156.455,120.473 157.529,120.447 158.665 L 120.400 160.730 118.811 160.998 C 117.937 161.146,117.239 161.387,117.258 161.533 C 117.642 164.352,117.126 167.200,116.233 167.200 C 114.496 167.200,114.000 167.609,114.000 169.043 C 114.000 170.380,113.889 170.473,112.202 170.559 C 111.763 170.582,111.390 170.780,111.373 171.000 C 111.013 175.631,110.522 176.783,108.900 176.794 C 108.122 176.799,108.000 177.011,108.000 178.357 C 108.000 179.949,107.371 180.594,106.240 180.160 C 105.933 180.042,105.545 180.166,105.379 180.435 C 105.173 180.767,105.256 180.830,105.638 180.632 C 105.947 180.472,105.885 180.599,105.500 180.914 C 104.987 181.335,104.800 182.079,104.800 183.701 C 104.800 185.878,104.184 186.808,103.161 186.176 C 102.686 185.883,101.659 186.908,101.697 187.637 C 101.713 187.947,101.698 189.134,101.663 190.276 L 101.600 192.352 100.100 192.476 C 98.763 192.587,98.586 192.730,98.469 193.800 C 98.308 195.280,98.040 195.573,96.749 195.679 C 96.190 195.726,95.712 195.952,95.686 196.182 C 95.660 196.412,95.515 197.725,95.364 199.100 C 95.212 200.475,94.889 201.627,94.644 201.661 C 94.400 201.694,94.020 201.764,93.800 201.815 C 93.580 201.866,93.175 201.928,92.900 201.954 C 92.625 201.979,92.421 202.135,92.447 202.300 C 92.970 205.613,92.178 207.943,90.484 208.072 C 89.282 208.164,89.200 208.267,89.200 209.685 C 89.200 211.021,89.082 211.206,88.200 211.250 C 85.956 211.362,86.176 210.969,86.059 215.076 L 86.000 217.152 84.500 217.276 L 83.000 217.400 82.884 220.477 L 82.767 223.554 81.284 223.677 C 79.884 223.793,79.793 223.885,79.676 225.300 C 79.571 226.566,79.407 226.800,78.625 226.800 C 77.308 226.800,76.928 227.459,76.605 230.300 C 76.333 232.703,76.278 232.800,75.204 232.800 C 74.024 232.800,73.600 233.390,73.600 235.033 C 73.600 235.733,73.379 236.000,72.800 236.000 C 72.360 236.000,72.000 236.174,72.000 236.387 C 72.000 236.601,71.699 236.659,71.331 236.518 C 70.823 236.323,70.723 236.423,70.918 236.931 C 71.059 237.299,71.019 237.600,70.829 237.600 C 70.638 237.600,70.471 238.613,70.456 239.852 C 70.424 242.489,70.509 242.349,68.879 242.473 C 68.176 242.526,67.579 242.757,67.554 242.985 C 67.528 243.213,67.466 243.580,67.415 243.800 C 67.364 244.020,67.294 245.134,67.261 246.276 L 67.200 248.352 65.700 248.476 C 64.281 248.593,64.193 248.681,64.076 250.100 C 64.008 250.925,63.738 251.627,63.476 251.661 C 63.214 251.694,62.820 251.764,62.600 251.815 C 62.380 251.866,62.005 251.928,61.767 251.954 C 61.528 251.979,61.319 252.225,61.302 252.500 C 61.134 255.214,60.601 258.011,60.243 258.059 C 59.999 258.092,59.440 258.137,59.000 258.159 C 58.495 258.185,58.185 258.495,58.159 259.000 C 58.137 259.440,58.092 260.734,58.059 261.876 L 58.000 263.952 56.500 264.076 C 55.081 264.193,54.993 264.281,54.876 265.700 C 54.808 266.525,54.538 267.227,54.276 267.261 C 51.967 267.556,51.771 267.814,51.665 270.695 C 51.549 273.831,51.736 273.495,50.000 273.691 L 48.600 273.850 48.482 276.725 C 48.366 279.568,48.353 279.600,47.262 279.600 C 45.871 279.600,45.200 280.262,45.200 281.635 C 45.200 282.547,44.988 282.751,43.806 282.973 C 43.039 283.116,42.430 283.361,42.453 283.517 C 42.476 283.673,42.473 285.015,42.447 286.500 L 42.400 289.200 40.800 289.200 C 39.207 289.200,39.200 289.207,39.200 290.757 C 39.200 292.281,38.445 293.122,37.564 292.578 C 37.364 292.454,37.200 292.554,37.200 292.800 C 37.200 293.046,36.992 293.119,36.738 292.962 C 36.463 292.791,36.385 292.851,36.545 293.111 C 36.692 293.349,36.622 293.663,36.387 293.808 C 36.153 293.952,35.991 294.370,36.027 294.735 C 36.260 297.111,35.977 298.400,35.224 298.400 C 34.797 298.400,34.334 298.583,34.196 298.807 C 34.058 299.030,33.796 299.121,33.614 299.009 C 33.087 298.683,32.800 299.884,32.800 302.409 L 32.800 304.752 31.300 304.876 C 29.907 304.991,29.791 305.100,29.667 306.397 C 29.522 307.932,28.964 308.495,27.913 308.168 C 26.783 307.816,26.210 312.907,26.776 318.269 C 26.996 320.347,22.227 320.090,63.663 320.261 C 100.103 320.413,101.200 320.371,101.200 318.838 C 101.200 317.840,102.337 316.690,103.052 316.964 C 103.353 317.080,103.600 316.990,103.600 316.764 C 103.600 316.538,103.750 316.445,103.933 316.559 C 104.327 316.802,104.376 316.580,104.657 313.300 L 104.871 310.800 106.193 310.800 C 107.778 310.800,108.000 310.358,108.000 307.193 L 108.000 304.851 109.300 304.725 C 110.489 304.611,110.617 304.464,110.800 303.000 C 110.998 301.418,111.139 301.301,113.082 301.113 C 113.348 301.088,113.472 300.917,113.359 300.733 C 113.245 300.550,113.343 300.400,113.576 300.400 C 113.809 300.400,113.979 300.265,113.953 300.100 C 113.927 299.935,113.927 298.776,113.953 297.524 L 114.000 295.248 115.476 295.124 C 116.836 295.010,116.964 294.890,117.109 293.603 C 117.273 292.149,117.853 291.481,118.687 291.787 C 118.955 291.885,119.298 291.765,119.449 291.521 C 119.625 291.236,119.522 291.181,119.162 291.368 C 118.750 291.581,118.760 291.518,119.200 291.130 C 119.801 290.599,119.896 290.279,120.277 287.514 C 120.468 286.127,121.156 285.496,122.562 285.420 C 123.003 285.396,123.237 284.454,123.485 281.700 C 123.673 279.615,123.683 279.600,125.037 279.600 C 126.360 279.600,126.400 279.554,126.400 278.000 C 126.400 276.550,127.247 275.815,128.129 276.500 C 128.345 276.668,129.618 275.264,129.560 274.921 C 129.014 271.706,130.157 269.493,132.130 269.944 C 132.311 269.986,132.345 269.835,132.206 269.610 C 132.067 269.384,132.143 269.200,132.376 269.200 C 132.631 269.200,132.800 268.163,132.800 266.600 C 132.800 264.032,132.813 264.000,133.900 263.994 C 135.370 263.986,135.777 263.628,135.940 262.200 C 136.105 260.759,136.094 260.773,137.155 260.693 C 137.620 260.658,138.000 260.477,138.000 260.291 C 138.000 260.105,138.150 260.045,138.333 260.159 C 138.716 260.395,138.759 260.214,139.054 257.123 C 139.265 254.913,139.309 254.842,140.536 254.723 L 141.800 254.600 141.917 251.500 L 142.034 248.400 143.617 248.400 C 145.197 248.400,145.200 248.397,145.200 246.800 C 145.200 245.246,145.551 244.917,146.942 245.167 C 147.904 245.339,148.400 244.177,148.400 241.751 C 148.400 239.207,148.403 239.200,149.551 239.200 C 150.893 239.200,151.383 238.661,151.553 237.000 C 151.663 235.921,151.981 235.483,152.590 235.570 C 153.044 235.635,154.253 234.173,154.104 233.740 C 154.017 233.488,154.138 233.162,154.373 233.017 C 154.608 232.872,154.800 232.063,154.800 231.219 C 154.800 229.718,155.562 228.882,156.436 229.422 C 156.636 229.546,156.800 229.446,156.800 229.200 C 156.800 228.954,156.958 228.850,157.151 228.970 C 157.570 229.228,158.000 227.304,158.000 225.175 C 158.000 223.748,158.083 223.643,159.300 223.525 C 160.480 223.412,160.611 223.265,160.722 221.938 C 160.838 220.546,162.018 219.644,163.330 219.944 C 163.511 219.986,163.545 219.835,163.406 219.610 C 163.267 219.384,163.301 219.200,163.482 219.200 C 163.663 219.200,163.867 218.077,163.935 216.704 C 164.078 213.825,164.039 213.900,165.415 213.900 C 166.736 213.900,167.095 212.959,167.172 209.300 C 167.197 208.149,167.329 208.000,168.320 208.000 C 169.734 208.000,170.400 207.342,170.400 205.947 C 170.400 204.934,171.201 204.294,172.562 204.220 C 173.003 204.196,173.237 203.254,173.485 200.500 C 173.664 198.512,173.734 198.400,174.794 198.400 C 176.175 198.400,176.400 197.864,176.400 194.567 L 176.400 192.000 178.000 192.000 C 179.552 192.000,179.600 191.959,179.600 190.643 C 179.600 189.349,180.808 188.442,182.130 188.744 C 182.311 188.786,182.345 188.635,182.206 188.410 C 182.067 188.184,182.143 188.000,182.376 188.000 C 182.631 188.000,182.800 186.970,182.800 185.424 L 182.800 182.848 184.300 182.724 C 185.694 182.609,185.809 182.501,185.932 181.200 C 186.055 179.891,186.438 179.371,187.400 179.202 C 188.227 179.057,188.810 178.262,188.593 177.577 C 188.469 177.187,188.555 176.752,188.784 176.610 C 189.013 176.469,189.200 175.746,189.200 175.003 C 189.200 173.734,189.789 173.142,190.955 173.239 C 191.600 173.292,191.869 172.395,191.959 169.891 C 192.064 166.981,191.874 167.304,193.600 167.109 C 194.891 166.964,195.010 166.837,195.124 165.476 C 195.242 164.078,195.654 163.736,196.942 163.967 C 197.898 164.138,198.400 162.977,198.400 160.598 C 198.400 158.045,198.532 157.844,200.467 157.454 C 201.162 157.313,201.511 155.877,201.573 152.900 C 201.595 151.862,201.766 151.600,202.426 151.600 C 203.912 151.600,204.800 150.847,204.800 149.586 C 204.800 148.468,205.111 148.216,206.300 148.370 C 206.575 148.406,206.800 148.237,206.800 147.994 C 206.800 147.751,206.958 147.650,207.151 147.770 C 207.584 148.038,208.000 146.082,208.000 143.775 C 208.000 142.122,208.054 142.046,209.300 141.925 L 210.600 141.800 210.717 138.923 L 210.834 136.046 212.317 135.923 C 213.716 135.807,213.807 135.715,213.924 134.300 C 214.037 132.931,214.152 132.800,215.237 132.800 C 216.733 132.800,217.099 131.872,217.172 127.900 C 217.197 126.588,217.321 126.400,218.167 126.400 C 219.980 126.400,220.400 126.007,220.400 124.314 C 220.400 123.046,220.526 122.763,221.009 122.948 C 221.778 123.243,223.255 121.809,222.964 121.050 C 222.844 120.737,222.938 120.362,223.173 120.217 C 223.408 120.072,223.600 119.339,223.600 118.588 C 223.600 117.384,223.753 117.183,224.899 116.886 C 225.613 116.701,226.215 116.291,226.238 115.975 C 226.260 115.659,226.306 114.365,226.339 113.100 L 226.400 110.800 228.000 110.800 C 229.558 110.800,229.600 110.764,229.600 109.418 C 229.600 108.156,229.721 108.014,230.996 107.774 C 231.765 107.630,232.294 107.352,232.173 107.156 C 232.052 106.960,232.143 106.800,232.376 106.800 C 232.633 106.800,232.800 105.730,232.800 104.087 C 232.800 101.427,232.821 101.373,233.882 101.285 C 235.466 101.154,235.744 100.680,235.928 97.799 C 236.080 95.401,236.164 95.200,237.014 95.200 C 238.703 95.200,239.200 94.781,239.200 93.357 C 239.200 92.167,239.822 91.583,240.539 92.100 C 241.379 92.707,241.911 90.812,241.972 86.991 L 242.039 82.800 203.719 82.806 C 179.670 82.810,165.177 82.957,164.800 83.200 " stroke="none" fill="#b42c34" fill-rule="evenodd"></path><path id="path3" d="M320.791 84.500 C 320.784 86.021,320.647 86.263,319.491 86.800 C 318.493 87.264,318.064 87.830,317.600 89.296 C 317.270 90.339,316.527 91.631,315.950 92.166 C 315.373 92.701,314.780 93.783,314.632 94.570 C 314.470 95.432,314.133 96.000,313.782 96.000 C 312.651 96.000,311.669 97.510,311.396 99.667 C 311.157 101.551,310.978 101.870,309.865 102.400 C 308.847 102.885,308.553 103.319,308.331 104.659 C 308.142 105.798,307.609 106.764,306.628 107.745 C 305.773 108.601,305.200 109.564,305.200 110.147 C 305.200 110.831,304.795 111.360,303.840 111.923 C 302.936 112.457,302.389 113.141,302.208 113.963 C 302.059 114.644,301.346 115.907,300.624 116.771 C 299.815 117.739,299.207 118.996,299.039 120.044 C 298.848 121.239,298.295 122.258,297.184 123.464 C 296.294 124.429,295.600 125.586,295.600 126.103 C 295.600 126.755,295.257 127.154,294.428 127.467 C 293.516 127.811,293.151 128.298,292.786 129.653 C 292.528 130.611,291.705 132.072,290.958 132.899 C 290.199 133.739,289.600 134.831,289.600 135.374 C 289.600 135.992,289.173 136.649,288.429 137.179 C 286.779 138.354,284.891 148.400,286.320 148.400 C 286.891 148.400,287.200 147.373,287.202 145.467 C 287.205 143.143,287.853 141.056,288.849 140.160 C 289.313 139.742,290.117 138.445,290.634 137.278 C 291.152 136.111,291.951 134.671,292.410 134.078 C 294.213 131.750,295.249 130.100,296.376 127.762 C 297.023 126.421,297.997 125.032,298.541 124.675 C 299.102 124.308,299.650 123.457,299.805 122.714 C 300.059 121.498,300.760 120.272,303.838 115.659 C 304.477 114.702,305.452 113.144,306.005 112.196 C 306.557 111.249,307.304 110.142,307.665 109.737 C 308.025 109.332,308.616 108.280,308.978 107.400 C 309.340 106.520,310.178 105.123,310.840 104.296 C 311.503 103.468,312.246 102.214,312.492 101.508 C 312.738 100.802,313.493 99.471,314.170 98.552 C 315.958 96.121,318.312 92.284,318.796 91.012 C 319.026 90.406,319.841 89.178,320.607 88.283 C 322.164 86.464,322.694 82.800,321.400 82.800 C 320.962 82.800,320.798 83.259,320.791 84.500 " stroke="none" fill="#246454" fill-rule="evenodd"></path><path id="path4" d="M322.000 84.728 C 322.000 86.351,321.780 86.913,320.607 88.283 C 319.841 89.178,319.026 90.406,318.796 91.012 C 318.312 92.284,315.958 96.121,314.170 98.552 C 313.493 99.471,312.738 100.802,312.492 101.508 C 312.246 102.214,311.503 103.468,310.840 104.296 C 310.178 105.123,309.340 106.520,308.978 107.400 C 308.616 108.280,308.025 109.332,307.665 109.737 C 307.304 110.142,306.557 111.249,306.005 112.196 C 305.452 113.144,304.477 114.702,303.838 115.659 C 300.760 120.272,300.059 121.498,299.805 122.714 C 299.650 123.457,299.102 124.308,298.541 124.675 C 297.997 125.032,297.023 126.421,296.376 127.762 C 295.249 130.101,294.213 131.750,292.409 134.079 C 291.949 134.673,291.194 136.023,290.730 137.079 C 290.267 138.136,289.385 139.577,288.771 140.283 C 287.689 141.526,287.549 142.052,287.053 146.722 C 286.723 149.828,287.773 148.343,288.200 145.098 C 288.538 142.532,288.766 141.931,289.671 141.224 C 290.260 140.764,290.957 139.715,291.219 138.894 C 291.482 138.072,292.105 136.950,292.604 136.400 C 293.104 135.850,293.873 134.680,294.313 133.800 C 294.754 132.920,295.498 131.853,295.967 131.430 C 296.435 131.006,297.099 129.696,297.441 128.518 C 297.833 127.169,298.414 126.147,299.012 125.756 C 299.533 125.414,300.162 124.520,300.410 123.768 C 300.658 123.017,301.463 121.682,302.199 120.801 C 302.934 119.921,303.657 118.652,303.804 117.981 C 303.951 117.311,304.432 116.545,304.871 116.281 C 305.311 116.016,306.299 114.630,307.067 113.200 C 310.084 107.581,310.711 106.537,311.717 105.452 C 312.291 104.833,313.048 103.458,313.401 102.398 C 313.753 101.337,314.295 100.373,314.604 100.254 C 314.914 100.135,315.621 99.142,316.176 98.047 C 316.731 96.952,317.388 95.931,317.637 95.777 C 317.886 95.623,318.534 94.486,319.077 93.249 C 319.620 92.012,320.490 90.550,321.011 90.000 C 322.945 87.957,324.083 82.800,322.600 82.800 C 322.150 82.800,322.000 83.281,322.000 84.728 " stroke="none" fill="#98588c" fill-rule="evenodd"></path></g></svg>