<?xml version="1.0" encoding="utf-8"?>
<!-- Generator: Adobe Illustrator 24.1.1, SVG Export Plug-In . SVG Version: 6.00 Build 0)  -->
<svg version="1.1" id="Layer_1" xmlns="http://www.w3.org/2000/svg" xmlns:xlink="http://www.w3.org/1999/xlink" x="0px" y="0px"
	 viewBox="0 0 130 59.8" style="enable-background:new 0 0 130 59.8;" xml:space="preserve">
<style type="text/css">
	.st0{fill:#FFFFFF;}
	.st1{enable-background:new    ;}
	.st2{fill:#008A28;}
</style>
<g id="Group_1634" transform="translate(-1459 170)">
	<g id="Group_429" transform="translate(1459 -170)">
		<g id="Path_104">
			<path class="st0" d="M0,34.2V2.8c0.1-1.4,1.2-2.6,2.6-2.7h15.9v7H7.8v7.3H17v6.8H7.8v8.7h10.7v7.2H2.6C1.2,36.9,0.1,35.7,0,34.2z
				"/>
		</g>
		<g id="Path_105">
			<path class="st0" d="M34.5,0.1H22.1v37h12.1c0,0,7.5,0.4,7.5-6.9V6.8C41.7,6.8,41.8,1.2,34.5,0.1z M32.7,30.8h-2.9V6.2h3.9
				c1.1,0.2,1.9,1.2,1.7,2.3c0,0.1,0,0.2-0.1,0.2v18.8C35.5,31,32.7,30.8,32.7,30.8L32.7,30.8z"/>
		</g>
		<g id="Path_106">
			<path class="st0" d="M46.5,0.1v10.4l9.4-7V0.1H46.5z"/>
		</g>
		<g id="Path_107">
			<path class="st0" d="M46.5,16v21.1h9.4V8.9L46.5,16z"/>
		</g>
		<g id="Path_108">
			<path class="st0" d="M71.2,11.2H79V6.7c0,0,0.2-5.6-6.8-6.7h-4.1c0,0-7.6,0.2-7.5,7.8v4.3c0,0,0.1,3.5,2.3,5.4s8,6.3,8,6.3
				c0.6,0.5,1,1.3,1,2c0.1,1.4,0.1,3.8,0.1,3.8s-0.3,1.5-1.6,1.6s-1.8-0.7-1.9-2v-5h-8v6.4c0,0,0.6,5.8,7.9,6.4h4.3
				c0,0,7.3-0.3,7.5-7.7V25c0,0,0.2-5-2.6-6.8l-7.9-5.8c-0.7-0.5-1.1-1.3-1.3-2.1c-0.2-0.8-0.2-1.7,0-2.5c0,0-0.2-2,1.4-2
				c1.5,0,1.3,1,1.3,1.6S71.2,11.2,71.2,11.2z"/>
		</g>
		<g id="Path_109">
			<path class="st0" d="M91.2,18.7"/>
		</g>
		<g id="Path_110">
			<path class="st0" d="M103.7,18.6v-10c0,0,0.3-8.6-9.7-8.6S83.9,8.7,83.9,8.7v19.6c0,0,0.1,8.7,10.1,8.7s9.7-8.6,9.7-8.6V18.6z
				 M96.6,18.7v10.4c-0.1,0.5-0.2,2.3-2.8,2.3s-2.5-2.3-2.5-2.3V8.1c0,0-0.2-2.2,2.5-2.3s2.7,1.7,2.8,2.3V18.7z"/>
		</g>
		<g id="Path_111">
			<path class="st0" d="M108.7,0v37h7.5V20.5h0.3l4.7,16.6h5.3c0,0,2.1-0.3,2.2-3.1V2.4c0,0,0.3-1.8,1.3-2V0h-8.7v16.5H121L116,0
				H108.7z"/>
		</g>
	</g>
	<g class="st1">
		<path class="st0" d="M1461.6-118.1v4h-1.2v-10.5h2.9c1.1,0,2,0.3,2.6,0.8c0.6,0.5,0.9,1.3,0.9,2.3s-0.3,1.8-1,2.4
			c-0.7,0.6-1.6,1-2.8,1H1461.6z M1461.6-123.6v4.3h1.3c0.8,0,1.5-0.2,1.9-0.6c0.4-0.4,0.7-0.9,0.7-1.6c0-1.4-0.8-2.1-2.5-2.1
			H1461.6z"/>
		<path class="st0" d="M1481.8-114.2h-1.5l-1.8-2.9c-0.2-0.3-0.3-0.5-0.5-0.7c-0.2-0.2-0.3-0.4-0.5-0.5c-0.2-0.1-0.3-0.2-0.5-0.3
			c-0.2-0.1-0.4-0.1-0.6-0.1h-1v4.5h-1.2v-10.5h3.1c0.5,0,0.9,0.1,1.3,0.2c0.4,0.1,0.7,0.3,1,0.5c0.3,0.2,0.5,0.5,0.7,0.9
			c0.2,0.3,0.2,0.8,0.2,1.2c0,0.4-0.1,0.7-0.2,1c-0.1,0.3-0.3,0.6-0.5,0.8s-0.4,0.4-0.7,0.6c-0.3,0.2-0.6,0.3-1,0.4v0
			c0.2,0.1,0.3,0.2,0.5,0.3c0.1,0.1,0.3,0.2,0.4,0.4c0.1,0.1,0.2,0.3,0.3,0.5c0.1,0.2,0.2,0.4,0.4,0.6L1481.8-114.2z M1475.5-123.6
			v3.8h1.7c0.3,0,0.6,0,0.9-0.1c0.3-0.1,0.5-0.2,0.7-0.4c0.2-0.2,0.3-0.4,0.4-0.6c0.1-0.3,0.2-0.5,0.2-0.8c0-0.6-0.2-1-0.5-1.3
			c-0.4-0.3-0.9-0.5-1.6-0.5H1475.5z"/>
	</g>
	<g class="st1">
		<path class="st2" d="M1492.9-114c-1.5,0-2.7-0.5-3.6-1.5c-0.9-1-1.3-2.3-1.3-3.8c0-1.7,0.5-3,1.4-4s2.2-1.5,3.7-1.5
			c1.5,0,2.6,0.5,3.5,1.5c0.9,1,1.3,2.3,1.3,3.8c0,1.7-0.5,3.1-1.4,4.1S1494.5-114,1492.9-114z M1493-123.7c-1.1,0-2,0.4-2.7,1.2
			s-1,1.8-1,3.1s0.3,2.3,1,3.1c0.7,0.8,1.5,1.2,2.6,1.2c1.2,0,2.1-0.4,2.7-1.1c0.7-0.8,1-1.8,1-3.2c0-1.4-0.3-2.5-1-3.2
			S1494.2-123.7,1493-123.7z"/>
	</g>
	<g class="st1">
		<path class="st0" d="M1506.7-118.1v4h-1.2v-10.5h2.9c1.1,0,2,0.3,2.6,0.8c0.6,0.5,0.9,1.3,0.9,2.3s-0.3,1.8-1,2.4
			c-0.7,0.6-1.6,1-2.8,1H1506.7z M1506.7-123.6v4.3h1.3c0.8,0,1.5-0.2,1.9-0.6c0.4-0.4,0.7-0.9,0.7-1.6c0-1.4-0.8-2.1-2.5-2.1
			H1506.7z"/>
		<path class="st0" d="M1524.9-114.2h-5.6v-10.5h5.3v1.1h-4.1v3.5h3.8v1.1h-3.8v3.7h4.3V-114.2z"/>
		<path class="st0" d="M1540-114.2h-1.5l-1.8-2.9c-0.2-0.3-0.3-0.5-0.5-0.7c-0.2-0.2-0.3-0.4-0.5-0.5c-0.2-0.1-0.3-0.2-0.5-0.3
			c-0.2-0.1-0.4-0.1-0.6-0.1h-1v4.5h-1.2v-10.5h3.1c0.5,0,0.9,0.1,1.3,0.2c0.4,0.1,0.7,0.3,1,0.5c0.3,0.2,0.5,0.5,0.7,0.9
			c0.2,0.3,0.2,0.8,0.2,1.2c0,0.4-0.1,0.7-0.2,1c-0.1,0.3-0.3,0.6-0.5,0.8c-0.2,0.2-0.4,0.4-0.7,0.6c-0.3,0.2-0.6,0.3-1,0.4v0
			c0.2,0.1,0.3,0.2,0.5,0.3c0.1,0.1,0.3,0.2,0.4,0.4c0.1,0.1,0.2,0.3,0.3,0.5c0.1,0.2,0.2,0.4,0.4,0.6L1540-114.2z M1533.7-123.6
			v3.8h1.7c0.3,0,0.6,0,0.9-0.1c0.3-0.1,0.5-0.2,0.7-0.4c0.2-0.2,0.3-0.4,0.4-0.6c0.1-0.3,0.2-0.5,0.2-0.8c0-0.6-0.2-1-0.5-1.3
			c-0.4-0.3-0.9-0.5-1.6-0.5H1533.7z"/>
		<path class="st0" d="M1552.4-123.6h-3v9.4h-1.2v-9.4h-3v-1.1h7.3V-123.6z"/>
		<path class="st0" d="M1560.8-114.2h-1.2v-10.5h1.2V-114.2z"/>
		<path class="st0" d="M1574.6-114.2h-5.6v-10.5h5.3v1.1h-4.1v3.5h3.8v1.1h-3.8v3.7h4.3V-114.2z"/>
		<path class="st0" d="M1581.6-114.6v-1.5c0.2,0.1,0.4,0.3,0.6,0.4c0.2,0.1,0.5,0.2,0.7,0.3c0.3,0.1,0.5,0.1,0.8,0.2
			s0.5,0.1,0.7,0.1c0.8,0,1.3-0.1,1.7-0.4c0.4-0.3,0.6-0.7,0.6-1.2c0-0.3-0.1-0.5-0.2-0.7c-0.1-0.2-0.3-0.4-0.5-0.6
			c-0.2-0.2-0.5-0.3-0.8-0.5c-0.3-0.2-0.6-0.3-1-0.5c-0.4-0.2-0.7-0.4-1-0.6c-0.3-0.2-0.6-0.4-0.8-0.6c-0.2-0.2-0.4-0.5-0.6-0.8
			c-0.1-0.3-0.2-0.6-0.2-1c0-0.5,0.1-0.9,0.3-1.2c0.2-0.4,0.5-0.6,0.8-0.9c0.3-0.2,0.7-0.4,1.2-0.5c0.4-0.1,0.9-0.2,1.3-0.2
			c1,0,1.8,0.1,2.3,0.4v1.4c-0.6-0.4-1.4-0.6-2.4-0.6c-0.3,0-0.5,0-0.8,0.1c-0.3,0.1-0.5,0.1-0.7,0.3c-0.2,0.1-0.4,0.3-0.5,0.5
			s-0.2,0.4-0.2,0.7c0,0.3,0,0.5,0.2,0.7c0.1,0.2,0.2,0.4,0.4,0.5s0.4,0.3,0.7,0.5c0.3,0.2,0.6,0.3,1,0.5c0.4,0.2,0.7,0.4,1.1,0.6
			s0.6,0.4,0.9,0.7c0.3,0.3,0.5,0.5,0.6,0.8c0.1,0.3,0.2,0.6,0.2,1c0,0.5-0.1,1-0.3,1.3c-0.2,0.4-0.5,0.7-0.8,0.9
			c-0.3,0.2-0.7,0.4-1.2,0.5c-0.4,0.1-0.9,0.2-1.4,0.2c-0.2,0-0.4,0-0.6,0c-0.2,0-0.5-0.1-0.7-0.1c-0.3-0.1-0.5-0.1-0.7-0.2
			C1581.9-114.4,1581.7-114.5,1581.6-114.6z"/>
	</g>
</g>
</svg>
